<?xml version="1.0" standalone="no"?>
<!DOCTYPE svg PUBLIC "-//W3C//DTD SVG 20010904//EN"
 "http://www.w3.org/TR/2001/REC-SVG-20010904/DTD/svg10.dtd">
<svg version="1.0" xmlns="http://www.w3.org/2000/svg"
 width="397.000000pt" height="442.000000pt" viewBox="0 0 397.000000 442.000000"
 preserveAspectRatio="xMidYMid meet">
<metadata>
Created by potrace 1.16, written by Peter Selinger 2001-2019
</metadata>
<g transform="translate(0.000000,442.000000) scale(0.100000,-0.100000)"
fill="#000000" stroke="none">
<path d="M1685 4085 c-22 -8 -41 -19 -43 -25 -5 -15 -139 -53 -154 -44 -23 15
-58 3 -141 -48 -129 -79 -166 -109 -193 -161 -14 -26 -31 -50 -39 -54 -8 -3
-15 -10 -15 -16 0 -5 -15 -28 -34 -51 -61 -75 -86 -138 -102 -258 -8 -61 -12
-127 -8 -147 11 -68 46 -176 75 -238 16 -33 32 -84 36 -112 l6 -50 27 19 c15
11 30 32 33 47 10 43 19 52 66 59 38 6 43 5 39 -12 -2 -10 -32 -39 -67 -63
-36 -25 -59 -47 -53 -49 7 -2 12 -10 12 -18 0 -15 -12 -19 -24 -7 -13 13 -44
10 -39 -4 3 -7 1 -13 -5 -13 -6 0 -12 5 -14 12 -5 13 -28 2 -28 -13 0 -6 15
-16 34 -24 24 -10 36 -23 40 -42 13 -57 8 -102 -14 -148 -17 -36 -21 -54 -14
-73 11 -32 39 -44 29 -13 -7 23 14 59 24 42 4 -5 5 24 3 65 -2 41 -1 74 3 74
5 0 24 -18 43 -40 46 -54 102 -81 176 -86 l61 -3 -55 8 c-31 4 -72 16 -93 26
-95 45 -155 179 -110 245 21 32 35 41 50 35 7 -2 51 1 97 7 56 7 89 7 101 0
16 -8 14 -11 -16 -17 -54 -11 -107 -46 -118 -76 -11 -31 -6 -39 22 -39 11 0
25 -7 31 -16 16 -21 111 -21 162 1 75 33 93 35 104 16 7 -14 3 -32 -16 -69
-27 -54 -55 -78 -119 -99 l-40 -13 40 6 c71 10 124 49 152 113 30 66 74 181
77 198 5 29 17 22 45 -23 118 -193 115 -189 181 -209 l25 -7 -25 18 c-68 47
-121 118 -120 161 1 11 7 4 17 -17 16 -35 16 -35 23 -10 l8 25 7 -22 c6 -18
12 -22 31 -17 13 4 31 1 39 -6 18 -15 45 -6 45 15 0 8 -3 15 -7 15 -5 0 -15 4
-23 10 -12 7 -12 12 4 29 25 28 31 26 46 -8 17 -43 54 -46 96 -9 33 29 54 30
54 2 0 -16 16 -19 25 -4 3 6 15 10 26 10 10 0 19 4 19 9 0 5 3 16 6 25 4 10
-8 23 -34 41 -35 23 -47 26 -86 20 -29 -5 -46 -3 -46 3 0 13 25 22 62 22 16 0
42 6 56 14 15 8 36 17 46 21 18 5 18 7 3 22 -16 16 -19 15 -48 -6 -29 -22 -33
-22 -44 -7 -16 21 -89 21 -161 0 -30 -8 -62 -14 -72 -11 -26 6 51 37 133 53
l70 14 -70 -6 c-40 -3 -96 -16 -130 -31 -33 -13 -88 -31 -121 -40 -51 -13 -61
-19 -57 -34 7 -25 -25 -26 -43 -2 -10 14 -34 19 -121 24 -59 4 -121 12 -138
19 -28 11 -29 12 -10 22 11 6 36 26 55 45 19 19 48 42 64 50 15 8 49 30 75 48
62 44 127 80 176 95 22 7 45 16 50 20 12 9 64 21 109 25 17 2 58 8 91 15 134
25 133 25 172 -11 19 -19 43 -49 55 -67 11 -18 46 -50 78 -72 49 -34 61 -47
75 -90 l17 -50 57 0 c51 0 81 -11 81 -31 0 -14 -65 -33 -103 -30 -32 2 -39 0
-34 -13 3 -8 19 -50 34 -93 l28 -78 5 47 c4 32 14 57 32 75 56 61 62 78 59
182 -1 61 4 121 14 166 9 39 20 88 25 110 13 56 12 202 -1 210 -7 5 -8 -6 -4
-32 3 -25 -5 -9 -26 46 -32 87 -90 170 -120 171 -23 0 -46 -28 -28 -34 8 -2
21 -7 29 -9 8 -3 -4 -6 -27 -6 -41 -1 -55 10 -33 24 15 9 12 25 -5 25 -8 0
-15 4 -15 9 0 5 -13 12 -29 16 -16 3 -35 13 -42 21 -14 17 -2 18 35 5 51 -20
57 42 6 69 -16 9 -20 8 -20 -5 0 -8 -4 -15 -10 -15 -5 0 -10 7 -10 16 0 8 -4
13 -10 9 -18 -11 -60 7 -60 25 0 22 -46 63 -103 92 -48 24 -207 39 -207 19 0
-6 10 -11 23 -11 18 0 19 -2 7 -10 -8 -5 -29 -10 -46 -10 -17 0 -51 -7 -75
-15 l-44 -15 30 25 c39 32 26 42 -35 26 -67 -17 -104 -21 -92 -9 23 23 191 40
177 18 -3 -5 4 -10 15 -10 16 0 20 5 16 15 -3 8 -1 15 4 15 25 0 6 18 -29 28
-51 16 -137 14 -186 -3z"/>
<path d="M1761 2534 c-36 -25 -85 -33 -106 -18 -26 19 -40 18 -72 -10 -27 -23
-27 -25 -10 -43 9 -11 17 -24 17 -29 -1 -16 -35 -51 -56 -58 -12 -3 -36 -20
-54 -36 -19 -17 -37 -30 -41 -30 -15 0 -14 -36 2 -53 21 -23 73 -16 139 19 31
16 61 24 97 24 29 0 84 5 122 12 59 10 78 9 130 -5 90 -25 119 -23 127 10 6
22 1 32 -25 55 -20 18 -39 26 -54 24 -12 -3 -25 -5 -29 -5 -3 -1 -4 -9 -1 -20
5 -18 2 -18 -60 -3 -59 14 -68 14 -117 -2 -35 -11 -66 -15 -94 -11 -35 6 -53
2 -94 -19 -62 -31 -66 -32 -50 -5 25 40 85 61 207 71 64 6 120 14 125 19 5 5
4 15 -4 24 -11 13 -9 19 10 40 27 29 28 27 -28 48 -52 21 -52 21 -81 1z"/>
<path d="M2347 2255 c-11 -22 -24 -35 -36 -35 -11 0 -22 -6 -25 -12 -5 -10 -7
-10 -12 -1 -6 13 -53 -15 -82 -47 -10 -11 -14 -12 -18 -2 -3 6 -10 10 -15 6
-5 -3 -5 -12 0 -22 13 -24 -25 -102 -50 -102 -10 0 -35 -9 -55 -21 -33 -18
-58 -21 -213 -24 -197 -5 -258 -10 -275 -25 -14 -11 -81 4 -91 20 -8 13 -55
13 -55 1 0 -5 -3 -16 -6 -25 -4 -10 5 -20 25 -31 18 -9 37 -30 46 -51 9 -23
25 -39 48 -49 18 -7 51 -33 73 -56 21 -23 48 -52 59 -63 11 -12 19 -29 17 -38
-4 -19 20 -37 26 -20 5 16 23 15 46 -3 18 -14 18 -15 -8 -24 -31 -13 -33 -21
-6 -44 26 -22 28 -22 54 6 12 13 28 24 36 24 8 0 23 4 33 8 10 4 17 3 17 -4 0
-6 -4 -11 -10 -11 -5 0 -10 -7 -10 -15 0 -13 23 -19 56 -14 4 0 10 -5 15 -12
16 -27 89 -14 89 16 0 8 5 15 12 15 6 0 3 9 -7 20 -20 22 -20 22 13 39 12 6
22 18 22 27 0 8 8 18 18 22 29 11 99 95 84 100 -8 2 12 30 52 72 95 101 129
166 128 248 0 12 3 22 7 22 4 0 15 22 25 50 15 43 16 52 4 69 -14 20 -15 19
-31 -14z"/>
<path d="M1828 2245 c-3 -3 -50 -9 -104 -13 -114 -8 -131 -23 -67 -59 54 -30
158 -22 203 16 22 18 29 31 25 44 -7 16 -45 24 -57 12z"/>
<path d="M2824 1540 c-27 -30 -68 -74 -90 -99 l-42 -45 -40 12 c-23 7 -49 23
-59 36 -22 27 -58 41 -68 26 -3 -5 -2 -10 3 -10 6 0 9 -8 8 -17 -1 -21 67 -61
107 -62 20 -1 28 -6 25 -16 -5 -24 -111 -154 -126 -155 -16 0 -153 74 -202
109 -19 14 -58 42 -86 63 -28 21 -55 38 -60 38 -18 0 -71 -64 -78 -92 -3 -16
-13 -28 -21 -28 -23 0 -29 -21 -26 -102 3 -83 -1 -94 -59 -173 -35 -48 -115
-223 -106 -232 2 -3 15 10 28 27 24 33 91 74 102 63 4 -4 -15 -28 -42 -53 -27
-25 -51 -54 -55 -63 -4 -10 -22 -27 -41 -38 -27 -16 -37 -29 -41 -57 -8 -45
-25 -93 -38 -107 -6 -6 -7 2 -3 25 5 29 0 44 -32 91 -37 55 -161 175 -215 207
-15 9 -30 24 -33 34 -3 10 -29 30 -57 45 -33 16 -46 28 -37 31 8 3 21 10 29
16 8 6 30 11 49 11 33 0 35 2 53 60 26 81 39 167 39 247 l-1 67 31 -29 c16
-15 33 -42 36 -60 7 -31 46 -61 60 -47 18 18 -91 205 -124 214 -14 3 -21 11
-18 18 8 22 -19 25 -50 6 -53 -33 -193 -190 -194 -218 0 -22 -35 -72 -56 -82
-16 -7 -74 -105 -74 -126 0 -11 66 10 78 24 11 14 12 11 7 -16 -5 -26 -3 -33
9 -33 21 0 20 -8 -10 -74 -24 -52 -25 -64 -18 -129 4 -40 6 -79 5 -86 -2 -8 5
-21 15 -28 13 -10 19 -29 21 -71 1 -31 4 -86 7 -122 2 -36 0 -70 -6 -77 -5 -7
-7 -21 -3 -32 3 -10 1 -22 -5 -26 -9 -6 -15 20 -11 52 4 29 -19 19 -36 -15
-10 -21 -24 -37 -30 -35 -20 7 -41 -73 -48 -178 -7 -114 -11 -137 -30 -159 -7
-8 -15 -27 -19 -43 l-6 -27 106 0 c107 0 107 0 89 20 -10 11 -16 23 -12 26 7
7 57 -25 57 -37 0 -5 551 -9 1295 -9 l1295 0 0 343 c0 289 -2 349 -15 375 -9
17 -22 61 -29 99 -16 82 -23 100 -41 107 -8 2 -17 25 -20 50 -4 25 -12 46 -17
46 -5 0 -7 -4 -4 -8 6 -10 -13 -198 -23 -224 -3 -9 -7 53 -8 140 -1 86 -8 188
-15 226 -10 59 -13 66 -24 51 -7 -10 -11 -30 -8 -45 6 -29 -14 -77 -40 -99
-14 -12 -16 -10 -16 8 0 12 6 21 15 21 10 0 15 11 15 35 0 40 -20 47 -47 16
-13 -16 -20 -17 -37 -8 -12 7 -22 13 -24 13 -1 1 2 12 7 25 7 21 5 26 -14 36
-24 11 -29 9 -105 -44 -25 -17 -25 -17 -7 3 16 20 16 22 1 35 -11 9 -41 14
-86 13 -80 -1 -104 -14 -155 -88 -18 -27 -33 -42 -33 -34 0 8 3 18 7 22 4 3
12 22 18 40 12 33 11 35 -14 41 -22 6 -34 -3 -96 -68 -38 -40 -80 -86 -92
-101 -21 -25 -23 -26 -23 -7 0 11 5 23 11 26 5 4 14 18 19 31 5 13 34 59 65
103 30 43 55 84 55 90 0 15 -20 14 -39 -3 -27 -23 -60 -29 -67 -12 -3 9 -10
16 -15 16 -26 0 -125 -120 -178 -215 -51 -92 -105 -175 -113 -175 -5 0 -8 11
-8 25 0 14 5 25 11 25 7 0 9 11 6 30 -5 22 -3 30 8 30 8 0 15 4 15 9 0 5 12
23 28 39 32 36 32 35 104 142 31 47 59 95 62 106 7 21 6 21 -48 5 -30 -8 -52
-19 -50 -23 7 -11 -38 -32 -45 -21 -10 16 -41 11 -41 -6 0 -11 -5 -10 -20 7
-37 39 -28 107 31 223 27 55 48 106 46 112 -2 7 -26 -13 -53 -43z m-1074
-1149 c0 -5 -13 -19 -28 -30 -22 -15 -29 -29 -30 -58 -1 -29 -8 -43 -32 -61
-17 -13 -27 -28 -24 -33 3 -6 -3 -13 -15 -16 -12 -3 -21 -9 -21 -13 0 -26
-218 -50 -226 -25 -2 6 22 24 54 41 31 16 61 40 66 51 6 12 24 27 40 35 22 9
32 22 36 43 4 23 11 31 30 33 14 2 32 6 40 9 15 7 89 29 103 32 4 0 7 -3 7 -8z"/>
<path d="M1221 1007 c-53 -38 -174 -157 -250 -245 -30 -35 -68 -69 -85 -76
-17 -7 -43 -24 -57 -37 -14 -13 -50 -45 -80 -70 -52 -45 -78 -86 -130 -206 -7
-17 -16 -30 -20 -27 -10 6 -89 -288 -89 -332 0 -12 47 -14 295 -14 l294 0 7
35 c3 19 4 44 1 55 -3 11 -1 23 4 26 5 3 9 20 9 37 0 18 7 45 15 61 9 16 15
56 15 95 1 38 7 76 15 91 16 29 20 96 5 105 -14 9 -24 -43 -11 -59 9 -11 6
-17 -17 -27 -23 -10 -32 -24 -46 -73 -9 -34 -21 -68 -26 -76 -31 -48 -34 -94
-5 -70 19 16 28 -5 13 -30 -7 -11 -19 -20 -26 -20 -7 0 -20 -16 -28 -35 -8
-19 -19 -35 -24 -35 -12 0 -14 -13 11 132 21 127 36 186 63 250 18 43 22 72 5
48 -28 -42 27 213 70 325 7 17 31 50 55 75 39 41 86 108 86 124 0 14 -27 3
-69 -27z"/>
</g>
</svg>
